{
  "asset": {
    "version": "2.0",
    "generator": "THREE.GLTFExporter r183"
  },
  "scenes": [
    {
      "name": "perso.glb",
      "nodes": [
        0,
        1,
        2
      ]
    }
  ],
  "scene": 0,
  "nodes": [
    {
      "matrix": [
        0.09353106148188535,
        0.1447409620619782,
        0.17423202397266113,
        0,
        -0.1599903550082354,
        -0.7153768380302801,
        0.6801757610457297,
        0,
        0.9048408788608359,
        -0.3710892266627729,
        -0.17745828515946252,
        0,
        0.8010643720626831,
        0.9379400014877319,
        -0.5778409838676453,
        1
      ],
      "name": "BézierCurve001",
      "extras": {
        "name": "BézierCurve.001"
      },
      "mesh": 0
    },
    {
      "matrix": [
        0.06470971402422611,
        0.18495424162630875,
        -0.14717128395644177,
        0,
        -0.15242456154553174,
        -0.5821717392690644,
        -0.7986508249473268,
        0,
        -0.9466249127923946,
        0.30059716993824664,
        -0.03845277442970034,
        0,
        0.7982280254364014,
        0.9379400014877319,
        0.5778409838676453,
        1
      ],
      "name": "BézierCurve",
      "extras": {
        "name": "BézierCurve"
      },
      "mesh": 1
    },
    {
      "matrix": [
        0.3089908957481384,
        0,
        0,
        0,
        0,
        0.3089908957481384,
        0,
        0,
        0,
        0,
        0.3089908957481384,
        0,
        -0.00010226452286588028,
        0.9156040549278259,
        0.0008525252342224121,
        1
      ],
      "name": "Sphere",
      "extras": {
        "name": "Sphere"
      },
      "mesh": 2
    }
  ],
  "bufferViews": [
    {
      "buffer": 0,
      "byteOffset": 0,
      "byteLength": 4056,
      "target": 34962,
      "byteStride": 12
    },
    {
      "buffer": 0,
      "byteOffset": 4056,
      "byteLength": 4056,
      "target": 34962,
      "byteStride": 12
    },
    {
      "buffer": 0,
      "byteOffset": 8112,
      "byteLength": 2704,
      "target": 34962,
      "byteStride": 8
    },
    {
      "buffer": 0,
      "byteOffset": 10816,
      "byteLength": 3696,
      "target": 34963
    },
    {
      "buffer": 0,
      "byteOffset": 14512,
      "byteLength": 4056,
      "target": 34962,
      "byteStride": 12
    },
    {
      "buffer": 0,
      "byteOffset": 18568,
      "byteLength": 4056,
      "target": 34962,
      "byteStride": 12
    },
    {
      "buffer": 0,
      "byteOffset": 22624,
      "byteLength": 2704,
      "target": 34962,
      "byteStride": 8
    },
    {
      "buffer": 0,
      "byteOffset": 25328,
      "byteLength": 3696,
      "target": 34963
    },
    {
      "buffer": 0,
      "byteOffset": 29024,
      "byteLength": 161376,
      "target": 34962,
      "byteStride": 12
    },
    {
      "buffer": 0,
      "byteOffset": 190400,
      "byteLength": 161376,
      "target": 34962,
      "byteStride": 12
    },
    {
      "buffer": 0,
      "byteOffset": 351776,
      "byteLength": 107584,
      "target": 34962,
      "byteStride": 8
    },
    {
      "buffer": 0,
      "byteOffset": 459360,
      "byteLength": 39864,
      "target": 34963
    }
  ],
  "buffers": [
    {
      "byteLength": 499224,
      "uri": "data:application/octet-stream;base64,"
    }
  ],
  "accessors": [
    {
      "bufferView": 0,
      "componentType": 5126,
      "count": 338,
      "max": [
        1.4468647241592407,
        0.4844319820404053,
        0.12370249629020691
      ],
      "min": [
        -2.2776315212249756,
        -0.37151965498924255,
        -0.45312392711639404
      ],
      "type": "VEC3"
    },
    {
      "bufferView": 1,
      "componentType": 5126,
      "count": 338,
      "max": [
        0.9764758944511414,
        0.9997156858444214,
        0.9999171495437622
      ],
      "min": [
        -0.9802648425102234,
        -0.9997479319572449,
        -0.9999197721481323
      ],
      "type": "VEC3"
    },
    {
      "bufferView": 2,
      "componentType": 5126,
      "count": 338,
      "max": [
        1,
        1
      ],
      "min": [
        0,
        0
      ],
      "type": "VEC2"
    },
    {
      "bufferView": 3,
      "componentType": 5123,
      "count": 1848,
      "max": [
        337
      ],
      "min": [
        0
      ],
      "type": "SCALAR"
    },
    {
      "bufferView": 4,
      "componentType": 5126,
      "count": 338,
      "max": [
        1.4468647241592407,
        0.4844319820404053,
        0.45312392711639404
      ],
      "min": [
        -2.2776315212249756,
        -0.37151965498924255,
        -0.12370249629020691
      ],
      "type": "VEC3"
    },
    {
      "bufferView": 5,
      "componentType": 5126,
      "count": 338,
      "max": [
        0.9764758944511414,
        0.9997156858444214,
        0.9999197721481323
      ],
      "min": [
        -0.9802711606025696,
        -0.9997479319572449,
        -0.9999171495437622
      ],
      "type": "VEC3"
    },
    {
      "bufferView": 6,
      "componentType": 5126,
      "count": 338,
      "max": [
        1,
        1
      ],
      "min": [
        0,
        0
      ],
      "type": "VEC2"
    },
    {
      "bufferView": 7,
      "componentType": 5123,
      "count": 1848,
      "max": [
        337
      ],
      "min": [
        0
      ],
      "type": "SCALAR"
    },
    {
      "bufferView": 8,
      "componentType": 5126,
      "count": 13448,
      "max": [
        2.577779769897461,
        3.630181074142456,
        4.512296199798584
      ],
      "min": [
        -2.580200433731079,
        -3.1350462436676025,
        -4.477957725524902
      ],
      "type": "VEC3"
    },
    {
      "bufferView": 9,
      "componentType": 5126,
      "count": 13448,
      "max": [
        0.9987409710884094,
        0.9977067708969116,
        0.999996542930603
      ],
      "min": [
        -0.9986982345581055,
        -0.999161422252655,
        -0.9962127804756165
      ],
      "type": "VEC3"
    },
    {
      "bufferView": 10,
      "componentType": 5126,
      "count": 13448,
      "max": [
        1,
        1.002906084060669
      ],
      "min": [
        0,
        0
      ],
      "type": "VEC2"
    },
    {
      "bufferView": 11,
      "componentType": 5123,
      "count": 19932,
      "max": [
        13447
      ],
      "min": [
        0
      ],
      "type": "SCALAR"
    }
  ],
  "materials": [
    {
      "pbrMetallicRoughness": {
        "metallicFactor": 0,
        "roughnessFactor": 1
      }
    },
    {
      "pbrMetallicRoughness": {
        "metallicFactor": 0,
        "roughnessFactor": 1
      }
    },
    {
      "pbrMetallicRoughness": {
        "baseColorFactor": [
          1,
          0,
          0,
          1
        ],
        "metallicFactor": 1,
        "roughnessFactor": 1
      },
      "emissiveFactor": [
        0.03954623527052923,
        0,
        0
      ],
      "extensions": {
        "KHR_materials_emissive_strength": {
          "emissiveStrength": 5.68
        }
      }
    }
  ],
  "meshes": [
    {
      "primitives": [
        {
          "mode": 4,
          "attributes": {
            "POSITION": 0,
            "NORMAL": 1,
            "TEXCOORD_0": 2
          },
          "indices": 3,
          "material": 0
        }
      ]
    },
    {
      "primitives": [
        {
          "mode": 4,
          "attributes": {
            "POSITION": 4,
            "NORMAL": 5,
            "TEXCOORD_0": 6
          },
          "indices": 7,
          "material": 1
        }
      ]
    },
    {
      "primitives": [
        {
          "mode": 4,
          "attributes": {
            "POSITION": 8,
            "NORMAL": 9,
            "TEXCOORD_0": 10
          },
          "indices": 11,
          "material": 2
        }
      ]
    }
  ],
  "extensionsUsed": [
    "KHR_materials_emissive_strength"
  ]
}